<svg width="170" height="170" viewBox="0 0 170 170" fill="none" xmlns="http://www.w3.org/2000/svg">
<rect width="170" height="170" rx="16" fill="#2A2B2A"/>
<g clip-path="url(#clip0_9029_4660)">
<path d="M165 84.9675L85.0325 5L5 84.9675L85.0325 165L165 84.9675ZM85.0325 26.2644L114.47 55.7456C104.826 53.1525 94.9075 51.82 84.9937 51.82C75.0375 51.811 65.1245 53.131 55.5175 55.745L85.0325 26.2644ZM58.815 117.411C66.8412 112.978 75.8638 110.663 85.0325 110.682C94.3531 110.682 103.304 113.026 111.249 117.411L85.0325 143.628L58.815 117.411ZM122.183 106.477C111.071 99.3988 98.1689 95.64 84.9937 95.6431C71.8167 95.6361 58.912 99.3952 47.8 106.477L27.1631 85.84C43.8531 73.5787 63.9444 66.9231 85.0625 66.9231C106.181 66.9231 126.25 73.5356 142.962 85.8406L122.183 106.477Z" fill="#FA7E61"/>
<path d="M116.58 74.282V91.274H111.276V82.802L108.66 91.274H104.1L101.484 82.802V91.274H96.1558V74.282H102.684L106.428 84.482L110.076 74.282H116.58Z" fill="#FA7E61"/>
<path d="M73.8401 74.282V91.274H68.5361V82.802L65.9201 91.274H61.3601L58.7441 82.802V91.274H53.4161V74.282H59.9441L63.6881 84.482L67.3361 74.282H73.8401Z" fill="#FA7E61"/>
</g>
<defs>
<clipPath id="clip0_9029_4660">
<rect width="160" height="160" fill="white" transform="translate(5 5)"/>
</clipPath>
</defs>
</svg>
