<svg width="225" height="225" viewBox="0 0 225 225" fill="none" xmlns="http://www.w3.org/2000/svg">
<rect width="225" height="225" fill="#FFE80A"/>
<path d="M35.1454 37.5103L111.363 11.8866C112.659 11.4509 114 12.4151 114 13.7824V212.335C114 213.668 112.721 214.628 111.441 214.255L80.7025 205.306C80.0485 205.115 79.5364 204.605 79.3435 203.952L70.4795 173.934C70.2284 173.083 69.4477 172.5 68.5613 172.5H66.9539C66.6682 172.5 66.3859 172.561 66.1258 172.679L49.185 180.384C48.3816 180.75 47.4336 180.545 46.8522 179.881L16.1668 144.833C15.5007 144.072 15.5072 142.934 16.1819 142.181L38.18 117.625C38.5381 117.225 38.7205 116.698 38.6863 116.163L33.7868 39.5336C33.729 38.6293 34.2865 37.7991 35.1454 37.5103Z" fill="black"/>
<path d="M189.659 37.5128L112.632 11.8759C111.337 11.4449 110 12.4088 110 13.7735V212.342C110 213.673 111.275 214.632 112.554 214.264L143.644 205.303C144.298 205.114 144.812 204.605 145.006 203.953L153.962 173.928C154.215 173.081 154.994 172.5 155.878 172.5H157.53C157.813 172.5 158.093 172.56 158.351 172.676L175.493 180.395C176.292 180.755 177.232 180.553 177.813 179.896L208.815 144.84C209.49 144.077 209.483 142.929 208.8 142.173L186.588 117.627C186.225 117.226 186.04 116.696 186.075 116.156L191.023 39.5393C191.082 38.6323 190.521 37.7998 189.659 37.5128Z" fill="black"/>
<circle cx="69" cy="130" r="21" fill="#FFE80A"/>
<circle cx="156" cy="130" r="21" fill="#FFE80A"/>
<path d="M100.408 168.578L110.41 152.923C110.778 152.348 111.413 152 112.096 152H112.878C113.575 152 114.222 152.363 114.585 152.957L124.099 168.526C124.617 169.373 124.435 170.471 123.673 171.106L120.581 173.682C119.715 174.404 118.425 174.268 117.728 173.381L114.101 168.764C113.721 168.282 113.142 168 112.528 168H112.372C111.816 168 111.285 168.232 110.907 168.639L106.347 173.55C105.601 174.353 104.347 174.406 103.536 173.669L100.748 171.135C100.027 170.479 99.8837 169.399 100.408 168.578Z" fill="#FFE80A"/>
</svg>
