<svg width="400" height="80" viewBox="0 0 400 80" fill="none" xmlns="http://www.w3.org/2000/svg">
<path d="M13.3333 50L13.3333 30L40 30L40 13.8666L66.1333 40L40 66.1333L40 50L13.3333 50Z" fill="#0077CC"/>
<path d="M130 66.6667L110 66.6667L110 40L93.8666 40L120 13.8667L146.133 40L130 40L130 66.6667Z" fill="#0077CC"/>
<path d="M190 13.3333L210 13.3333L210 40L226.133 40L200 66.1333L173.867 40L190 40L190 13.3333Z" fill="#0077CC"/>
<path d="M270 13.3333L290 13.3333L290 40L306.133 40L280 66.1333L253.867 40L270 40L270 13.3333Z" fill="#0077CC"/>
<path d="M333.333 50L333.333 30L360 30L360 13.8666L386.133 40L360 66.1333L360 50L333.333 50Z" fill="#0077CC"/>
</svg>
