<?xml version="1.0" encoding="UTF-8"?>
<svg id="Layer_2" data-name="Layer 2" xmlns="http://www.w3.org/2000/svg" viewBox="0 0 184.38 127.14">
  <defs>
    <style>
      .cls-1 {
        fill: #fff;
      }

      .cls-2 {
        fill: #202e50;
      }
    </style>
  </defs>
  <g id="Layer_1-2" data-name="Layer 1">
    <g>
      <g>
        <g>
          <path class="cls-2" d="m47.19,91.88c-2.87,0-5.57-1.12-7.6-3.15L5.65,54.79c-2.03-2.03-3.15-4.73-3.15-7.6s1.12-5.57,3.15-7.6L39.59,5.65c2.03-2.03,4.73-3.15,7.6-3.15s5.57,1.12,7.6,3.15l33.94,33.94c2.03,2.03,3.15,4.73,3.15,7.6s-1.12,5.57-3.15,7.6l-33.94,33.94c-2.03,2.03-4.73,3.15-7.6,3.15Zm0-69.74c-1.4,0-2.72.55-3.71,1.54l-19.8,19.8c-.99.99-1.54,2.31-1.54,3.71s.55,2.72,1.54,3.71l19.8,19.8c.99.99,2.31,1.54,3.71,1.54s2.72-.55,3.71-1.54l19.8-19.8c.99-.99,1.54-2.31,1.54-3.71s-.55-2.72-1.54-3.71l-19.8-19.8c-.99-.99-2.31-1.54-3.71-1.54Z"/>
          <path class="cls-1" d="m47.19,3.75c2.54,0,4.92.99,6.72,2.78l33.94,33.94c1.79,1.79,2.78,4.18,2.78,6.72s-.99,4.92-2.78,6.72l-33.94,33.94c-1.79,1.79-4.18,2.78-6.72,2.78s-4.92-.99-6.72-2.78L6.53,53.91c-1.79-1.79-2.78-4.18-2.78-6.72s.99-4.92,2.78-6.72L40.47,6.53c1.79-1.79,4.18-2.78,6.72-2.78m0,69.74c1.74,0,3.37-.68,4.6-1.9l19.8-19.8c1.23-1.23,1.9-2.86,1.9-4.6s-.68-3.37-1.9-4.6l-19.8-19.8c-1.23-1.23-2.86-1.9-4.6-1.9-1.74,0-3.37.68-4.6,1.9l-19.8,19.8c-2.53,2.53-2.53,6.66,0,9.19l19.8,19.8c1.23,1.23,2.86,1.9,4.6,1.9m0-72.24c-3.07,0-6.14,1.17-8.49,3.51L4.76,38.71C.08,43.39.08,50.99,4.76,55.68l33.94,33.94c2.34,2.34,5.41,3.51,8.49,3.51s6.14-1.17,8.49-3.51l33.94-33.94c4.69-4.69,4.69-12.28,0-16.97L55.68,4.76c-2.34-2.34-5.41-3.51-8.49-3.51h0Zm0,69.74c-1.02,0-2.05-.39-2.83-1.17l-19.8-19.8c-1.56-1.56-1.56-4.09,0-5.66l19.8-19.8c.78-.78,1.8-1.17,2.83-1.17s2.05.39,2.83,1.17l19.8,19.8c1.56,1.56,1.56,4.09,0,5.66l-19.8,19.8c-.78.78-1.8,1.17-2.83,1.17h0Z"/>
        </g>
        <g>
          <path class="cls-2" d="m92.19,91.88c-2.87,0-5.57-1.12-7.6-3.15l-33.94-33.94c-2.03-2.03-3.15-4.73-3.15-7.6s1.12-5.57,3.15-7.6L84.59,5.65c2.03-2.03,4.73-3.15,7.6-3.15s5.57,1.12,7.6,3.15l33.94,33.94c2.03,2.03,3.15,4.73,3.15,7.6s-1.12,5.57-3.15,7.6l-33.94,33.94c-2.03,2.03-4.73,3.15-7.6,3.15Zm0-69.74c-1.4,0-2.72.55-3.71,1.54l-19.8,19.8c-.99.99-1.54,2.31-1.54,3.71s.55,2.72,1.54,3.71l19.8,19.8c.99.99,2.31,1.54,3.71,1.54s2.72-.55,3.71-1.54l19.8-19.8c.99-.99,1.54-2.31,1.54-3.71s-.55-2.72-1.54-3.71l-19.8-19.8c-.99-.99-2.31-1.54-3.71-1.54Z"/>
          <path class="cls-1" d="m92.19,3.75c2.54,0,4.92.99,6.72,2.78l33.94,33.94c1.79,1.79,2.78,4.18,2.78,6.72s-.99,4.92-2.78,6.72l-33.94,33.94c-1.79,1.79-4.18,2.78-6.72,2.78s-4.92-.99-6.72-2.78l-33.94-33.94c-1.79-1.79-2.78-4.18-2.78-6.72s.99-4.92,2.78-6.72L85.47,6.53c1.79-1.79,4.18-2.78,6.72-2.78m0,69.74c1.74,0,3.37-.68,4.6-1.9l19.8-19.8c1.23-1.23,1.9-2.86,1.9-4.6s-.68-3.37-1.9-4.6l-19.8-19.8c-1.23-1.23-2.86-1.9-4.6-1.9-1.74,0-3.37.68-4.6,1.9l-19.8,19.8c-2.53,2.53-2.53,6.66,0,9.19l19.8,19.8c1.23,1.23,2.86,1.9,4.6,1.9m0-72.24c-3.07,0-6.14,1.17-8.49,3.51l-33.94,33.94c-4.69,4.69-4.69,12.28,0,16.97l33.94,33.94c2.34,2.34,5.41,3.51,8.49,3.51s6.14-1.17,8.49-3.51l33.94-33.94c4.69-4.69,4.69-12.28,0-16.97L100.68,4.76c-2.34-2.34-5.41-3.51-8.49-3.51h0Zm0,69.74c-1.02,0-2.05-.39-2.83-1.17l-19.8-19.8c-1.56-1.56-1.56-4.09,0-5.66l19.8-19.8c.78-.78,1.8-1.17,2.83-1.17s2.05.39,2.83,1.17l19.8,19.8c1.56,1.56,1.56,4.09,0,5.66l-19.8,19.8c-.78.78-1.8,1.17-2.83,1.17h0Z"/>
        </g>
        <g>
          <path class="cls-2" d="m137.19,91.88c-2.87,0-5.57-1.12-7.6-3.15l-33.94-33.94c-2.03-2.03-3.15-4.73-3.15-7.6s1.12-5.57,3.15-7.6L129.59,5.65c2.03-2.03,4.73-3.15,7.6-3.15s5.57,1.12,7.6,3.15l33.94,33.94c2.03,2.03,3.15,4.73,3.15,7.6s-1.12,5.57-3.15,7.6l-33.94,33.94c-2.03,2.03-4.73,3.15-7.6,3.15Zm0-69.74c-1.4,0-2.72.55-3.71,1.54l-19.8,19.8c-.99.99-1.54,2.31-1.54,3.71s.55,2.72,1.54,3.71l19.8,19.8c.99.99,2.31,1.54,3.71,1.54s2.72-.55,3.71-1.54l19.8-19.8c.99-.99,1.54-2.31,1.54-3.71s-.55-2.72-1.54-3.71l-19.8-19.8c-.99-.99-2.31-1.54-3.71-1.54Z"/>
          <path class="cls-1" d="m137.19,3.75c2.54,0,4.92.99,6.72,2.78l33.94,33.94c1.79,1.79,2.78,4.18,2.78,6.72s-.99,4.92-2.78,6.72l-33.94,33.94c-1.79,1.79-4.18,2.78-6.72,2.78s-4.92-.99-6.72-2.78l-33.94-33.94c-1.79-1.79-2.78-4.18-2.78-6.72s.99-4.92,2.78-6.72L130.47,6.53c1.79-1.79,4.18-2.78,6.72-2.78m0,69.74c1.74,0,3.37-.68,4.6-1.9l19.8-19.8c1.23-1.23,1.9-2.86,1.9-4.6s-.68-3.37-1.9-4.6l-19.8-19.8c-1.23-1.23-2.86-1.9-4.6-1.9-1.74,0-3.37.68-4.6,1.9l-19.8,19.8c-2.53,2.53-2.53,6.66,0,9.19l19.8,19.8c1.23,1.23,2.86,1.9,4.6,1.9m0-72.24c-3.07,0-6.14,1.17-8.49,3.51l-33.94,33.94c-4.69,4.69-4.69,12.28,0,16.97l33.94,33.94c2.34,2.34,5.41,3.51,8.49,3.51s6.14-1.17,8.49-3.51l33.94-33.94c4.69-4.69,4.69-12.28,0-16.97L145.68,4.76c-2.34-2.34-5.41-3.51-8.49-3.51h0Zm0,69.74c-1.02,0-2.05-.39-2.83-1.17l-19.8-19.8c-1.56-1.56-1.56-4.09,0-5.66l19.8-19.8c.78-.78,1.8-1.17,2.83-1.17s2.05.39,2.83,1.17l19.8,19.8c1.56,1.56,1.56,4.09,0,5.66l-19.8,19.8c-.78.78-1.8,1.17-2.83,1.17h0Z"/>
        </g>
      </g>
      <g>
        <path class="cls-2" d="m21.09,105.03c4.42,0,7.2,2.14,8.83,4.67l-3.78,2.05c-.99-1.5-2.82-2.69-5.06-2.69-3.87,0-6.69,2.98-6.69,7.01s2.82,7.01,6.69,7.01c1.95,0,3.68-.8,4.61-1.63v-2.59h-5.7v-3.9h10.18v8.16c-2.18,2.43-5.22,4.03-9.09,4.03-6.24,0-11.36-4.35-11.36-11.07s5.12-11.04,11.36-11.04Z"/>
        <path class="cls-2" d="m37.57,126.73v-21.34h4.54v17.34h9.02v4h-13.57Z"/>
        <path class="cls-2" d="m68.19,105.03c6.46,0,11.17,4.61,11.17,11.04s-4.7,11.04-11.17,11.04-11.14-4.61-11.14-11.04,4.7-11.04,11.14-11.04Zm0,4.03c-3.94,0-6.46,3.01-6.46,7.01s2.53,7.01,6.46,7.01,6.5-3.04,6.5-7.01-2.56-7.01-6.5-7.01Z"/>
        <path class="cls-2" d="m86.34,126.73v-21.34h11.23c4.06,0,6.14,2.59,6.14,5.44,0,2.69-1.66,4.48-3.68,4.9,2.27.35,4.1,2.56,4.1,5.25,0,3.2-2.14,5.76-6.21,5.76h-11.58Zm4.54-12.77h5.7c1.54,0,2.5-.99,2.5-2.37s-.96-2.34-2.5-2.34h-5.7v4.7Zm0,8.89h5.86c1.73,0,2.75-.99,2.75-2.53,0-1.34-.96-2.5-2.75-2.5h-5.86v5.02Z"/>
        <path class="cls-2" d="m126.27,126.73l-1.34-3.68h-9.54l-1.34,3.68h-4.99l8.26-21.34h5.7l8.22,21.34h-4.96Zm-6.11-17.41l-3.55,9.79h7.07l-3.52-9.79Z"/>
        <path class="cls-2" d="m136.99,126.73v-21.34h4.54v17.34h9.02v4h-13.57Z"/>
        <path class="cls-2" d="m159.39,126.73v-8.74l-8.22-12.61h5.18l5.31,8.58,5.25-8.58h5.18l-8.16,12.61v8.74h-4.54Z"/>
      </g>
    </g>
  </g>
</svg>