<svg width="425" height="104" viewBox="0 0 425 104" fill="none" xmlns="http://www.w3.org/2000/svg">
<path d="M128.643 2.20649C129.003 2.30649 129.143 2.47649 129.193 2.80649C129.293 17.2765 129.193 58.1765 129.223 64.4665C129.093 71.5665 130.883 80.8165 135.803 85.2965C143.733 93.5365 161.493 94.1565 170.573 86.6265C177.553 81.4165 178.963 70.1165 178.613 61.4465C178.613 44.7265 178.613 17.2265 178.613 4.00649C178.663 3.33649 178.493 2.88649 178.833 2.42649C179.243 2.08649 179.933 2.10649 180.513 2.06649C182.883 1.99649 186.793 2.05649 189.183 2.04649C190.153 2.10649 191.823 1.83649 191.723 3.19649C191.693 14.9165 191.753 38.1065 191.723 51.1265C191.463 65.7665 193.153 74.4165 186.623 86.4465C177.043 103.626 152.933 107.106 136.203 99.9365C118.973 92.1565 115.413 76.1965 116.113 58.7165C116.133 43.5465 116.093 18.8965 116.113 4.80649C116.273 3.18649 115.483 2.01649 117.863 2.06649C121.133 2.04649 125.453 1.88649 128.563 2.17649L128.633 2.19649L128.643 2.20649Z" fill="white"/>
<path d="M222.923 13.0365C222.403 19.4465 222.733 39.8265 222.803 45.6565C222.803 46.7565 227.243 46.1365 228.763 46.2865C237.243 46.2865 253.023 46.2765 257.493 46.2865C258.053 46.3065 258.593 46.3265 258.893 46.7965C259.593 48.6165 259.193 52.8565 259.243 54.8365C259.123 56.0165 259.193 56.7365 258.203 57.0065C253.173 57.2065 238.073 57.0265 228.993 57.0865C221.693 57.2765 222.753 55.6165 222.713 62.9665C222.713 71.2365 222.713 80.9665 222.713 89.3865C222.713 91.7565 222.743 91.6365 225.043 91.6465C229.093 91.6465 233.033 91.6465 237.213 91.6465C242.083 91.6465 247.653 91.6465 252.393 91.6465C255.913 91.6465 258.943 91.6465 260.863 91.6465C261.723 91.6865 262.333 91.5365 262.963 91.8665C263.443 92.2065 263.473 92.8865 263.533 93.4865C263.633 95.2265 263.613 98.8865 263.543 100.616C263.513 101.456 263.393 102.536 262.333 102.436C249.213 102.406 223.053 102.486 210.303 102.436C209.563 102.416 209.613 102.186 209.603 101.646C209.613 93.6265 209.573 6.92647 209.623 2.32647C209.653 2.11647 209.743 2.01647 210.013 1.97647C210.493 1.90647 211.773 1.94647 213.873 1.93647C225.733 2.24647 257.863 1.33647 263.233 2.27647C263.543 2.67647 263.583 3.75647 263.603 5.48647C263.603 7.49647 263.643 10.0165 263.513 11.2365C263.433 11.9465 263.273 12.3365 262.963 12.5265C256.443 13.3365 229.643 12.0865 222.953 12.9965L222.923 13.0265V13.0365Z" fill="white"/>
<path d="M295.233 99.8365C287.543 96.3965 281.073 89.8666 279.193 81.4966C278.663 79.1366 278.313 77.0266 279.703 76.2766C282.153 75.2566 285.273 75.8666 287.883 75.7166C291.603 75.5965 292.623 76.9566 293.593 80.1665C295.723 86.0465 300.473 90.3766 306.783 91.6466C314.533 93.2866 324.483 92.1465 329.613 86.0565C336.163 78.6565 334.023 66.7266 325.153 62.3066C311.363 54.8366 290.763 56.2966 281.973 41.3066C278.773 35.6966 278.363 27.4566 279.983 21.3366C284.503 3.94655 305.473 -1.61345 321.423 1.61655C332.203 3.58655 341.723 10.5566 344.783 21.1466C345.243 22.9266 346.203 25.4166 344.093 26.2066C342.803 26.6766 340.173 26.5066 337.663 26.5366C336.103 26.5066 334.353 26.6366 332.903 26.1466C331.163 25.5366 330.753 23.8166 329.933 22.2666C329.003 20.3766 327.573 18.5766 325.983 17.1466C320.353 11.8366 310.453 10.9966 303.373 13.3066C295.623 15.5866 291.133 23.7166 293.043 31.5366C295.823 44.0866 316.143 45.3866 326.583 49.6966C335.323 52.3966 344.203 58.5666 346.113 68.0666C352.093 98.0066 318.933 110.287 295.423 99.9165L295.243 99.8365H295.233Z" fill="white"/>
<path d="M424.663 3.26642C424.843 5.02642 424.803 9.41642 424.733 11.2264C424.623 12.3664 424.573 12.9864 423.563 13.1764C417.913 13.4264 403.483 13.0664 397.873 13.3164C397.343 13.4264 397.443 13.7064 397.423 14.2364C397.423 19.8964 397.423 25.6064 397.423 35.6064C397.233 60.9364 397.793 98.0264 397.213 102.726C394.493 103.266 389.663 102.816 386.773 102.956C386.003 102.896 384.303 103.176 384.323 102.256C384.313 96.2964 384.323 37.3464 384.323 18.4964C384.323 16.0364 384.343 14.3764 384.303 13.7364C384.263 13.3764 383.993 13.3164 383.623 13.2864C378.163 13.1664 362.823 13.3164 358.463 13.2264C357.143 13.3164 356.843 12.1664 356.853 11.0664C356.803 9.13642 356.783 6.07642 356.853 4.15642C356.873 3.60642 356.973 2.65642 357.393 2.64642C365.153 2.49642 418.833 2.61642 424.153 2.62642C424.413 2.67642 424.563 2.80642 424.653 3.18642L424.673 3.26642H424.663Z" fill="white"/>
<path d="M80.933 29.3665C80.153 28.7165 79.573 27.6565 78.963 26.7365C75.543 21.2365 70.393 16.9665 64.603 14.5765C54.083 10.2465 40.423 11.1865 30.703 17.2465C10.893 29.2765 8.00305 60.5265 22.393 78.1065C34.903 93.5065 61.3931 95.0865 75.423 81.0665C80.1831 76.3565 83.323 70.4065 84.873 63.2065C85.063 61.5665 86.5331 57.9265 83.843 58.1165C77.3231 58.0965 51.263 58.1465 46.773 58.0965C45.813 57.9865 45.843 57.4865 45.733 56.3065C45.673 54.7065 45.693 51.3865 45.713 49.5965C45.753 48.0265 45.893 47.5565 46.463 47.4865C53.393 47.3965 91.483 47.4865 98.443 47.4565C99.8531 47.3565 99.643 48.4965 99.723 49.8465C99.723 53.4365 99.863 57.7765 99.183 61.3665C95.423 85.5565 73.443 103.716 48.813 102.446C16.813 101.726 -4.44695 73.1565 0.793047 42.0965C5.79305 10.0865 37.853 -7.08351 67.863 2.77649C80.253 6.90649 91.463 16.4565 95.853 28.8965C95.983 30.2065 94.453 30.2365 93.453 30.2865C90.7131 30.2965 86.133 30.3265 83.653 30.2665C82.663 30.2065 81.773 30.0465 81.033 29.4565L80.923 29.3665H80.933Z" fill="white"/>
<path d="M63.5231 41.4665C63.5931 41.6965 63.5231 41.8765 63.3931 42.0665C62.8731 42.7265 61.3331 44.1665 59.3831 46.1465C54.6031 50.9065 47.3631 58.2265 45.5431 59.9665C44.6231 60.7265 44.1131 59.8165 43.2031 59.0365C41.8731 57.7165 39.3931 55.2565 38.0531 53.8465C37.0231 52.7765 37.2131 52.4165 37.9331 51.6965C41.2631 48.4665 52.3431 37.0565 55.5931 34.1265C56.5031 33.8265 56.8031 34.5765 57.7831 35.4065C59.2031 36.9465 62.4531 39.7865 63.5031 41.3765L63.5231 41.4465V41.4665Z" fill="white"/>
<path d="M37.3731 52.6264C37.3031 52.8564 37.3731 53.0364 37.5031 53.2264C38.0231 53.8864 39.5631 55.3264 41.5131 57.3064C46.2931 62.0664 53.5331 69.3864 55.3531 71.1264C56.2731 71.8864 56.7831 70.9764 57.6931 70.1964C59.0231 68.8764 61.5031 66.4164 62.8431 65.0064C63.8731 63.9364 63.6831 63.5764 62.9631 62.8564C59.6331 59.6264 48.5531 48.2164 45.3031 45.2864C44.3931 44.9864 44.0931 45.7364 43.1131 46.5664C41.6931 48.1064 38.4431 50.9464 37.3931 52.5364L37.3731 52.6064V52.6264Z" fill="white"/>
</svg>
