<svg width="272" height="38" viewBox="0 0 272 38" fill="none" xmlns="http://www.w3.org/2000/svg">
  <path d="M49.933 12.666h6.976c.317 0 .579.11.787.33.208.219.31.477.31.777a1.062 1.062 0 0 1-1.098 1.106h-6.975c-.298 0-.554-.11-.771-.329a1.107 1.107 0 0 1-.327-.81c0-.3.109-.554.327-.764.217-.21.473-.313.77-.313v.003ZM53.05 8.6a1.1 1.1 0 0 1 .832.345c.217.23.326.513.326.852v14.45c0 .478.07.839.208 1.078a1.1 1.1 0 0 0 .55.493c.228.09.452.136.67.136.198 0 .37-.036.518-.104.147-.07.32-.106.518-.106s.38.093.55.284c.17.19.253.432.253.732 0 .358-.208.664-.624.913-.416.248-.88.374-1.395.374-.278 0-.618-.02-1.024-.061a3.076 3.076 0 0 1-1.203-.387c-.397-.22-.727-.584-.995-1.094-.27-.51-.4-1.222-.4-2.139V9.796c0-.338.118-.622.355-.85.237-.23.525-.346.86-.346Zm14.294 19.746c-1.584 0-2.97-.34-4.157-1.017a7.208 7.208 0 0 1-2.774-2.796c-.663-1.187-.995-2.558-.995-4.113 0-1.735.342-3.215 1.024-4.441.681-1.226 1.574-2.164 2.672-2.813a6.746 6.746 0 0 1 3.488-.97c.908 0 1.792.17 2.643.509a6.669 6.669 0 0 1 2.256 1.48 7.443 7.443 0 0 1 1.574 2.336c.397.906.605 1.919.624 3.035 0 .32-.118.59-.355.81a1.188 1.188 0 0 1-.832.329H60.787l-.534-2.065H71.68l-.477.42v-.658c-.08-.816-.352-1.52-.816-2.11a4.785 4.785 0 0 0-1.693-1.361 4.759 4.759 0 0 0-2.092-.477 5.27 5.27 0 0 0-1.767.312 4.19 4.19 0 0 0-1.574 1.016c-.464.468-.842 1.074-1.127 1.81-.288.739-.432 1.626-.432 2.664 0 1.158.234 2.174.698 3.052a5.3 5.3 0 0 0 1.946 2.08c.832.51 1.801.764 2.908.764.692 0 1.296-.09 1.812-.27.515-.181.96-.404 1.334-.675.374-.27.691-.541.95-.822.256-.18.506-.271.743-.271.297 0 .537.1.726.3.189.2.282.439.282.72 0 .338-.16.638-.474.896-.553.62-1.305 1.161-2.256 1.632a6.765 6.765 0 0 1-3.027.703v-.01ZM83.853 12.19c1.008 0 1.92.109 2.73.328.809.22 1.455.52 1.929.897.474.38.714.81.714 1.287 0 .261-.09.51-.27.748a.847.847 0 0 1-.713.358c-.278 0-.499-.048-.669-.151-.17-.1-.326-.23-.473-.387a1.952 1.952 0 0 0-.608-.42c-.237-.138-.586-.248-1.04-.329a7.798 7.798 0 0 0-1.367-.119c-1.088 0-2.044.261-2.864.777a5.572 5.572 0 0 0-1.945 2.094c-.477.877-.714 1.874-.714 2.993 0 1.12.227 2.116.682 2.99a5.34 5.34 0 0 0 1.9 2.093c.813.52 1.751.778 2.82.778.691 0 1.248-.061 1.664-.18.416-.12.761-.259 1.04-.42.355-.2.627-.4.816-.597.189-.2.441-.3.758-.3.336 0 .599.11.787.33.19.218.282.49.282.809 0 .358-.25.738-.742 1.138-.496.4-1.162.739-2.004 1.016-.841.281-1.795.42-2.864.42-1.504 0-2.819-.355-3.948-1.061-1.13-.707-2.004-1.674-2.628-2.903-.624-1.23-.934-2.597-.934-4.113 0-1.516.32-2.884.963-4.1a7.513 7.513 0 0 1 2.685-2.903c1.149-.719 2.483-1.077 4.006-1.077l.007.003Zm15.709.148c1.305 0 2.339.283 3.1.851.762.568 1.306 1.326 1.632 2.274.327.948.49 2 .49 3.158v8.2c0 .338-.115.628-.342.867a1.12 1.12 0 0 1-.845.358 1.12 1.12 0 0 1-.845-.358 1.216 1.216 0 0 1-.342-.868v-8.2c0-.757-.109-1.441-.327-2.047a3.037 3.037 0 0 0-1.085-1.468c-.505-.368-1.193-.552-2.064-.552a4.57 4.57 0 0 0-2.227.552 4.418 4.418 0 0 0-1.603 1.468 3.668 3.668 0 0 0-.595 2.048v8.2c0 .338-.115.628-.343.867a1.12 1.12 0 0 1-.844.358 1.12 1.12 0 0 1-.845-.358 1.216 1.216 0 0 1-.343-.868V7.102c0-.338.116-.622.343-.851a1.14 1.14 0 0 1 .845-.345c.355 0 .643.116.86.345.218.229.327.513.327.851v8.948l-.595.658c.099-.52.316-1.042.652-1.57a5.931 5.931 0 0 1 1.277-1.423 6.51 6.51 0 0 1 1.722-1.003 5.4 5.4 0 0 1 1.987-.374h.01Zm10.454-2.004c-.496 0-.861-.1-1.098-.3-.236-.2-.355-.51-.355-.925v-.42c0-.419.128-.729.387-.929.256-.2.624-.3 1.098-.3.474 0 .832.1 1.069.3.237.2.355.51.355.93v.419c0 .419-.125.729-.371.925-.247.2-.608.3-1.085.3Zm1.187 16.486c0 .339-.115.63-.342.868a1.12 1.12 0 0 1-.845.358c-.355 0-.643-.12-.861-.358a1.246 1.246 0 0 1-.326-.868V13.534c0-.339.115-.622.342-.851a1.14 1.14 0 0 1 .845-.345c.336 0 .618.116.845.345.227.229.342.512.342.851V26.82Zm11.741-14.631c1.344 0 2.403.28 3.178.839.771.558 1.321 1.306 1.648 2.245.326.938.489 1.983.489 3.141v8.41c0 .338-.115.628-.342.867a1.12 1.12 0 0 1-.845.358 1.12 1.12 0 0 1-.845-.358 1.216 1.216 0 0 1-.342-.868v-8.348c0-.758-.115-1.441-.343-2.048a3.078 3.078 0 0 0-1.126-1.467c-.525-.368-1.242-.555-2.154-.555a4.75 4.75 0 0 0-2.284.555 4.546 4.546 0 0 0-1.661 1.467 3.546 3.546 0 0 0-.624 2.049v8.347c0 .339-.115.63-.343.868a1.117 1.117 0 0 1-.844.358 1.12 1.12 0 0 1-.845-.358 1.217 1.217 0 0 1-.343-.868V13.78c0-.338.116-.622.343-.851.227-.23.509-.346.845-.346.355 0 .643.117.86.346.218.229.327.512.327.851v2.126l-.595.658c.099-.52.326-1.042.681-1.571.355-.529.8-1.003 1.335-1.423a6.85 6.85 0 0 1 1.782-1.003 5.706 5.706 0 0 1 2.048-.374v-.003Zm8.496.477h6.976c.317 0 .579.11.787.33.208.219.311.477.311.777 0 .32-.103.584-.311.793a1.06 1.06 0 0 1-.787.313h-6.976c-.298 0-.554-.11-.771-.329a1.106 1.106 0 0 1-.327-.81c0-.3.109-.554.327-.764.217-.21.473-.313.771-.313v.003Zm3.117-4.067c.336 0 .614.116.832.345.217.23.326.513.326.852v14.45c0 .478.071.839.208 1.078a1.1 1.1 0 0 0 .551.493c.227.09.451.136.668.136.199 0 .372-.036.519-.104.15-.07.32-.106.521-.106.202 0 .381.093.548.284.166.19.252.432.252.732 0 .358-.208.664-.624.913-.416.248-.88.374-1.395.374-.278 0-.617-.02-1.024-.061a3.078 3.078 0 0 1-1.203-.387c-.397-.22-.726-.584-.995-1.094-.266-.51-.4-1.222-.4-2.139V9.796c0-.338.118-.622.355-.85.237-.23.525-.346.861-.346Zm14.291 19.747c-1.584 0-2.97-.34-4.157-1.017a7.206 7.206 0 0 1-2.774-2.796c-.663-1.187-.995-2.558-.995-4.113 0-1.735.342-3.215 1.024-4.441.681-1.226 1.574-2.164 2.672-2.813a6.752 6.752 0 0 1 3.488-.97 7.1 7.1 0 0 1 2.643.509 6.673 6.673 0 0 1 2.256 1.48 7.385 7.385 0 0 1 1.571 2.336c.397.906.605 1.919.624 3.035 0 .32-.118.59-.355.81a1.188 1.188 0 0 1-.832.329h-11.725l-.534-2.065h11.427l-.474.42v-.658c-.08-.816-.352-1.52-.816-2.11a4.776 4.776 0 0 0-1.689-1.361 4.761 4.761 0 0 0-2.093-.477c-.592 0-1.184.106-1.767.312-.585.21-1.11.549-1.574 1.016-.464.468-.842 1.074-1.13 1.81-.288.739-.428 1.626-.428 2.664 0 1.158.233 2.174.697 3.052a5.3 5.3 0 0 0 1.946 2.08c.832.51 1.801.764 2.909.764.691 0 1.296-.09 1.811-.27.515-.181.96-.404 1.337-.675.375-.27.692-.541.951-.822.256-.18.505-.271.742-.271.298 0 .538.1.727.3.188.2.281.439.281.72 0 .338-.157.638-.473.896-.554.62-1.306 1.161-2.256 1.632a6.727 6.727 0 0 1-3.028.703l-.006-.01Zm10.813-.3a1.12 1.12 0 0 1-.845-.358 1.216 1.216 0 0 1-.342-.868V13.776c0-.339.115-.623.342-.852.227-.229.509-.345.845-.345.355 0 .643.116.861.345.217.23.326.513.326.852v3.948l-.355-.629a6.63 6.63 0 0 1 .637-1.81 6.351 6.351 0 0 1 1.174-1.587 5.354 5.354 0 0 1 1.632-1.106 4.94 4.94 0 0 1 2.019-.403c.435 0 .835.106 1.203.313.365.21.551.503.551.884 0 .419-.109.729-.327.929-.217.2-.464.3-.742.3a1.74 1.74 0 0 1-.742-.165c-.237-.11-.535-.164-.89-.164a3 3 0 0 0-1.469.403c-.483.268-.931.655-1.337 1.151a6.252 6.252 0 0 0-.98 1.69 5.487 5.487 0 0 0-.371 2.02v7.27c0 .339-.115.629-.342.868a1.12 1.12 0 0 1-.845.358h-.003Zm11.133-15.737c.236 0 .464.064.681.193a1.1 1.1 0 0 1 .474.555l4.928 11.667-.474.238 5.018-11.876c.217-.539.582-.797 1.097-.777.298 0 .554.1.772.3.217.2.326.448.326.748a1.431 1.431 0 0 1-.15.629l-5.728 13.286c-.218.5-.564.758-1.037.777a1.25 1.25 0 0 1-.727-.164 1.099 1.099 0 0 1-.489-.613l-5.728-13.254a1.291 1.291 0 0 1-.151-.629c0-.258.103-.503.311-.732.208-.229.499-.345.877-.345v-.003Zm16.694-1.975c-.496 0-.861-.1-1.098-.3-.236-.2-.355-.51-.355-.925v-.42c0-.419.128-.729.384-.929.256-.2.624-.3 1.098-.3.473 0 .832.1 1.069.3.236.2.355.51.355.93v.419c0 .419-.125.729-.371.925-.247.2-.608.3-1.082.3Zm1.187 16.486c0 .339-.115.63-.342.868a1.12 1.12 0 0 1-.845.358c-.355 0-.643-.12-.861-.358a1.246 1.246 0 0 1-.326-.868V13.534c0-.339.115-.622.342-.851a1.14 1.14 0 0 1 .845-.345c.336 0 .618.116.845.345.227.229.342.512.342.851V26.82Zm11.178 1.526c-1.584 0-2.97-.34-4.157-1.017a7.206 7.206 0 0 1-2.774-2.796c-.663-1.187-.996-2.558-.996-4.113 0-1.735.343-3.215 1.024-4.441.682-1.226 1.575-2.164 2.672-2.813a6.76 6.76 0 0 1 3.488-.97c.909 0 1.792.17 2.644.509a6.673 6.673 0 0 1 2.256 1.48 7.401 7.401 0 0 1 1.571 2.336c.397.906.605 1.919.624 3.035 0 .32-.119.59-.355.81a1.19 1.19 0 0 1-.832.329h-11.725l-.535-2.065h11.428l-.474.42v-.658c-.08-.816-.352-1.52-.816-2.11a4.77 4.77 0 0 0-1.69-1.361 4.757 4.757 0 0 0-2.092-.477c-.592 0-1.184.106-1.767.312-.585.21-1.11.549-1.574 1.016-.464.468-.842 1.074-1.13 1.81-.288.739-.429 1.626-.429 2.664 0 1.158.234 2.174.698 3.052a5.3 5.3 0 0 0 1.946 2.08c.832.51 1.801.764 2.908.764.692 0 1.296-.09 1.812-.27.515-.181.96-.404 1.337-.675.375-.27.691-.541.951-.822.256-.18.505-.271.742-.271.298 0 .538.1.726.3.189.2.282.439.282.72 0 .338-.157.638-.474.896-.553.62-1.305 1.161-2.256 1.632a6.72 6.72 0 0 1-3.027.703l-.006-.01Zm27.277-16.037c.316 0 .588.11.816.329.227.219.342.51.342.867 0 .08-.003.165-.016.255a.853.853 0 0 1-.074.255l-4.569 13.254a1.178 1.178 0 0 1-.49.6c-.227.138-.47.2-.726.18-.458-.02-.803-.277-1.04-.777l-3.741-9.454.592.09-3.386 9.364c-.217.5-.563.758-1.036.777-.26.02-.506-.038-.743-.18a1.009 1.009 0 0 1-.473-.6l-4.66-13.254a1.696 1.696 0 0 1-.089-.51c0-.32.109-.6.326-.838.218-.24.515-.358.89-.358.237 0 .454.06.653.18.198.12.336.31.416.568l4.006 11.79-.624-.03 3.472-8.976c.198-.5.563-.749 1.098-.749.275 0 .499.065.668.194.167.129.292.313.372.555l3.619 8.976-.743.061 4.007-11.818c.179-.5.553-.748 1.126-.748l.007-.003Zm2.976 13.282a1.235 1.235 0 0 1-.237-.822c.019-.287.189-.542.505-.765.199-.138.432-.2.698-.18.269.02.509.151.726.39a6.644 6.644 0 0 0 1.901 1.57c.714.391 1.584.585 2.611.585.474-.02.951-.1 1.424-.239a2.638 2.638 0 0 0 1.204-.732c.326-.349.489-.813.489-1.39 0-.578-.169-1.003-.505-1.332-.336-.33-.772-.6-1.306-.81a14.751 14.751 0 0 0-1.75-.555 26.404 26.404 0 0 1-1.93-.613 7.391 7.391 0 0 1-1.706-.867 4.01 4.01 0 0 1-1.216-1.316c-.307-.53-.46-1.171-.46-1.933 0-.896.24-1.674.726-2.332.483-.658 1.139-1.167 1.958-1.525a6.652 6.652 0 0 1 2.685-.539c.554 0 1.133.065 1.738.194a6.63 6.63 0 0 1 1.766.658 4.98 4.98 0 0 1 1.514 1.27c.179.2.275.449.297.749.02.3-.108.567-.384.806a1.05 1.05 0 0 1-.726.21c-.269-.02-.49-.12-.669-.3a4.089 4.089 0 0 0-1.558-1.152 5.172 5.172 0 0 0-2.064-.403 4.76 4.76 0 0 0-1.395.21 2.517 2.517 0 0 0-1.143.703c-.307.329-.461.784-.461 1.361.02.539.199.977.535 1.316.336.339.79.613 1.366.823.576.21 1.207.416 1.901.613.634.158 1.242.345 1.824.551.582.21 1.114.484 1.587.823.474.338.851.774 1.127 1.303.275.529.416 1.193.416 1.99 0 .92-.256 1.71-.772 2.377-.515.668-1.193 1.177-2.032 1.526a7.028 7.028 0 0 1-2.716.522 8.668 8.668 0 0 1-3.22-.629c-1.059-.419-1.974-1.125-2.745-2.125l-.003.01Zm15.702 2.426c-.416 0-.736-.12-.963-.358-.227-.239-.343-.568-.343-.987v-.6c0-.439.116-.777.343-1.016.227-.239.55-.358.963-.358h.237c.435 0 .761.12.979.358.218.238.326.58.326 1.016v.6c0 .42-.108.748-.326.987-.218.239-.544.358-.979.358h-.237Zm6.346-17.683c-.496 0-.861-.1-1.098-.3-.237-.2-.355-.51-.355-.925v-.42c0-.419.128-.729.384-.929.256-.2.624-.3 1.097-.3.474 0 .832.1 1.069.3.237.2.355.51.355.93v.419c0 .419-.124.729-.371.925-.246.2-.608.3-1.081.3Zm1.187 16.486c0 .339-.115.63-.343.868a1.117 1.117 0 0 1-.844.358c-.356 0-.644-.12-.861-.358a1.243 1.243 0 0 1-.327-.868V13.534c0-.339.116-.622.343-.851a1.14 1.14 0 0 1 .845-.345c.336 0 .617.116.844.345.228.229.343.512.343.851V26.82ZM272 20.266c0 1.555-.342 2.942-1.024 4.158a7.668 7.668 0 0 1-2.758 2.87c-1.159.697-2.458 1.049-3.904 1.049-1.447 0-2.752-.349-3.917-1.049a7.613 7.613 0 0 1-2.775-2.87c-.681-1.216-1.024-2.603-1.024-4.158 0-1.555.343-2.942 1.024-4.16a7.658 7.658 0 0 1 2.775-2.872c1.165-.696 2.473-1.048 3.917-1.048 1.443 0 2.745.348 3.904 1.048a7.667 7.667 0 0 1 2.758 2.871c.685 1.216 1.024 2.603 1.024 4.161Zm-2.374 0c0-1.158-.231-2.174-.698-3.051a5.292 5.292 0 0 0-1.901-2.065c-.8-.5-1.705-.748-2.717-.748-1.011 0-1.913.248-2.716.748-.8.5-1.44 1.187-1.914 2.065-.477.877-.714 1.893-.714 3.051 0 1.158.237 2.145.714 3.022a5.54 5.54 0 0 0 1.914 2.08c.803.51 1.705.765 2.716.765 1.012 0 1.917-.255 2.717-.764a5.406 5.406 0 0 0 1.901-2.08c.464-.878.698-1.884.698-3.023Z" fill="#fff"/>
  <path d="M30.269 0H7.43C3.327 0 0 3.353 0 7.49v23.02C0 34.647 3.327 38 7.43 38h22.84c4.104 0 7.43-3.353 7.43-7.49V7.49C37.7 3.353 34.373 0 30.27 0Z" fill="#E94041"/>
  <path d="M10.506 12.399c0-1.362 1.1-2.471 2.45-2.471h2.932V6.615h-2.931c-3.165 0-5.738 2.594-5.738 5.784v4.05c0 .498-.115 1.652-1.197 1.652H4.787v3.313h1.235c1.079 0 1.197 1.155 1.197 1.651v4.052c0 3.19 2.573 5.783 5.738 5.783h2.931v-3.313h-2.931c-1.35 0-2.451-1.11-2.451-2.47v-4.052c0-1.306-.394-2.448-1.063-3.309.669-.861 1.063-2 1.063-3.31v-4.05.003Zm21.206 5.706c-1.078 0-1.197-1.155-1.197-1.652v-4.051c0-3.19-2.573-5.783-5.737-5.783h-2.932V9.93h2.932c1.35 0 2.45 1.11 2.45 2.471v4.051c0 1.307.394 2.448 1.063 3.31-.669.86-1.062 2-1.062 3.31v4.05c0 1.361-1.101 2.471-2.451 2.471h-2.932v3.313h2.932c3.164 0 5.737-2.594 5.737-5.784v-4.05c0-.498.115-1.652 1.197-1.652h1.235v-3.313h-1.235v-.003Z" style="mix-blend-mode:multiply" fill="#D7D6D6"/>
  <path d="M32.413 19.895v-3.313c-1.079 0-1.197-1.154-1.197-1.651V10.88c0-3.19-2.573-5.784-5.738-5.784h-3.632V8.41h3.632c1.35 0 2.452 1.11 2.452 2.47v4.052c0 2.877 1.884 4.967 4.483 4.967v-.003Z" fill="#fff"/>
  <path d="M21.846 31.384h3.632c3.165 0 5.738-2.593 5.738-5.783v-4.052c0-.496.115-1.65 1.197-1.65v-3.314c-2.599 0-4.483 2.087-4.483 4.968v4.051a2.465 2.465 0 0 1-2.452 2.47h-3.632v3.313-.003Z" fill="#fff"/>
  <path d="M33.613 16.58h-1.245v3.312h1.245v-3.313ZM5.322 19.895v-3.313c1.078 0 1.196-1.154 1.196-1.651V10.88c0-3.19 2.573-5.784 5.738-5.784h3.632V8.41h-3.632c-1.35 0-2.451 1.11-2.451 2.47v4.052c0 2.877-1.885 4.967-4.483 4.967v-.003Z" fill="#fff"/>
  <path d="M15.885 31.384h-3.632c-3.165 0-5.738-2.593-5.738-5.783v-4.052c0-.496-.115-1.65-1.197-1.65v-3.314c2.599 0 4.484 2.087 4.484 4.968v4.051c0 1.361 1.1 2.47 2.45 2.47h3.633v3.313-.003Z" fill="#fff"/>
  <path d="M5.318 16.58H4.083v3.312h1.235v-3.313Z" fill="#fff"/>
</svg>
